<svg xmlns="http://www.w3.org/2000/svg" viewBox="0 0 52 52" id="bank"><path d="M47.412 49.576c.83.144 1.658.129 2.482-.047 1.555-.18 1.651-2.516 0-2.5-15.353.15-30.726-1.041-46.063-.586-1.605.048-1.612 2.548 0 2.5 15.337-.455 30.71.736 46.063.586v-2.5a6.496 6.496 0 01-2.482.047c-1.604-.124-1.596 2.377 0 2.5zM2.929 24.41c3.384-1.082 3.353-3.478 6.251-5.661 2.635-1.985 5.323-3.28 7.772-5.596a91.234 91.234 0 014.26-3.804c1.135-.946 3.33-3.484 4.764-3.81 2.537-.575 6.177 3.472 7.895 5.383 1.078 1.2 2.84-.573 1.768-1.767-1.332-1.482-2.787-2.653-4.329-3.875-.75-.595-2.28-2.615-3.464-2.878-2.105-.468-3.617 1.349-5.167 2.578-3.95 3.132-7.478 7.155-11.7 9.874-1.47.947-3.227 1.585-4.587 2.681-1.428 1.152-2.362 3.9-4.128 4.464-1.527.488-.874 2.902.665 2.41z"></path><path d="M32.98 9.418c.737 1.11 1.607 1.845 2.67 2.636 1.697 1.264 2.83 2.583 4.308 4.075 2.385 2.405 6.135 3.262 7.98 6.19.856 1.357 3.02.104 2.16-1.262-1.67-2.65-4.308-3.663-6.784-5.39-1.57-1.095-2.522-2.569-3.885-3.865-1.364-1.297-3.23-2.048-4.29-3.646-.886-1.334-3.052-.083-2.159 1.262z"></path><path d="M51.332 21.852c-8.518.168-17.018 1.283-25.533.481-8.402-.79-16.697-.884-25.131-.684-1.606.039-1.612 2.539 0 2.5 8.437-.2 16.725-.107 25.13.684 8.515.802 17.016-.313 25.534-.481 1.607-.032 1.612-2.532 0-2.5z"></path><path d="M6.81 23.166c-.71 4.195.046 8.183.037 12.39-.01 3.882-1.711 7.507-.858 11.35.35 1.57 2.76.905 2.411-.665-.743-3.345.987-7.245.947-10.685C9.3 31.589 8.548 27.8 9.22 23.83c.267-1.574-2.142-2.25-2.41-.665zM14.063 24.229c.142 7.084.166 14.168.072 21.253-.021 1.609 2.479 1.61 2.5 0 .094-7.085.07-14.169-.072-21.253-.032-1.607-2.533-1.612-2.5 0zM21.529 22.893c-.496 7.79.613 15.514-.07 23.251-.141 1.603 2.36 1.593 2.5 0 .683-7.737-.426-15.46.07-23.251.102-1.607-2.399-1.6-2.5 0zM29.484 24.898l-.536 21.335c-.04 1.61 2.46 1.608 2.5 0l.536-21.335c.04-1.609-2.46-1.608-2.5 0zM37.233 23.75c-.903 4.355.655 7.613.541 11.912-.085 3.18-2.322 8.37-1.098 11.448.229.574.6.846 1.205.917l.194.023c1.594.188 1.581-2.313 0-2.5l-.194-.023 1.206.918c-1.106-2.78 1.045-7.662 1.187-10.783.179-3.928-1.451-7.287-.63-11.247.326-1.57-2.084-2.241-2.41-.664zM45.358 23.45c-1.324 3.041-1.315 5.254-.79 8.506.78 4.843-.51 9.425-.45 14.264.02 1.607 2.52 1.612 2.5 0-.043-3.45.78-6.791.841-10.226.07-3.958-1.65-7.362.058-11.282.636-1.46-1.518-2.735-2.159-1.262zM24.998 12.06c1.405.079 2.931-.358 3.67 1.174.274.567.442 1.423.356 2.043-.13.925-.766.777-1.543.783-.473.003-1.478.204-1.9.01-.47-.218-.6-1.08-.758-1.578-.217-.691-.419-1.017.108-1.45.409-.336 1.135-.446 1.6-.747 1.347-.871.095-3.036-1.261-2.159-.956.618-2.197.764-2.82 1.832-.665 1.142-.287 2.455.103 3.616.338 1.003.64 2.474 1.772 2.87.667.234 1.52.114 2.206.11.727-.003 1.469.033 2.193-.046 2.794-.305 3.183-3.167 2.532-5.454-.328-1.154-1.03-2.264-2.07-2.9-1.303-.796-2.744-.523-4.188-.605-1.608-.09-1.603 2.41 0 2.5z"></path></svg>