<svg xmlns="http://www.w3.org/2000/svg" viewBox="0 0 52 52" id="diamond"><path d="M25.67 46.512c1.608 0 1.611-2.5 0-2.5-1.609 0-1.612 2.5 0 2.5zM50.848 17.248c-7.269-1.203-14.994-.497-22.332-.355-8.454.163-16.902.466-25.346.882-1.602.078-1.611 2.579 0 2.5a851.84 851.84 0 0 1 23.395-.842c7.68-.167 16.014-1.033 23.619.226 1.573.26 2.25-2.148.664-2.41z"></path><path d="M2.092 19.947c3.573-2.266 4.351-6.45 7.137-9.45 3.615-3.892 12.182-2.208 17.28-2.203l9.509.01c1.134 0 2.71-.279 3.803.003 2.224.573 2.607 2.139 3.675 3.888.72 1.178 2.074 2.665 2.653 3.92 1.998 4.332-1.476 5.568-3.997 8.104-3.401 3.423-5.29 7.824-8.934 11.139-1.742 1.583-3.484 3.114-4.932 4.98-1.628 2.095-1.609 3.206-3.986 1.339-3.922-3.081-6.687-7.863-10.065-11.509-1.967-2.122-4.642-3.762-6.387-6.052-1.543-2.024-2.737-4.326-4.294-6.366-.963-1.262-3.135-.018-2.159 1.261 1.783 2.337 3.135 5.13 5.044 7.34 1.954 2.263 4.553 3.941 6.57 6.194 3.889 4.345 7.575 10.743 12.666 13.758.52.308 1.078.157 1.515-.195 1.304-1.052 1.977-2.774 2.995-4.103 1.58-2.062 3.514-3.658 5.4-5.416 3.576-3.33 5.428-7.814 8.896-11.15 1.975-1.898 5.756-4.036 5.687-7.275-.024-1.14-.465-1.746-1.067-2.627-.7-1.022-1.839-1.803-2.523-2.865-.803-1.247-1.053-2.789-1.76-4.051-1.727-3.085-3.356-2.812-6.899-2.816l-17.114-.017c-3.536-.004-8.594-1.115-11.654.96-3.87 2.623-4.366 8.532-8.32 11.04-1.356.86-.103 3.025 1.261 2.16z"></path><path d="M31.363 7.83c1.365 3.046 1.024 6.363 2.176 9.51.548 1.5 2.965.852 2.41-.664-1.23-3.361-.945-6.802-2.427-10.108-.657-1.466-2.813-.196-2.16 1.262zM18.866 6.455c-1.458 1.241-1.634 3.29-2.409 4.944-.882 1.884-2.237 3.375-2.33 5.53-.07 1.609 2.43 1.606 2.5 0 .074-1.715 1.594-3.333 2.266-4.885.527-1.214.705-2.94 1.741-3.821 1.227-1.045-.548-2.806-1.768-1.768z"></path><path d="M14.147 18.174c1.995 3.955 2.9 8.607 4.672 12.705 2.094 4.845 4.307 9.593 5.696 14.701.422 1.551 2.834.893 2.41-.664-1.297-4.775-3.284-9.222-5.264-13.742-2.027-4.625-3.103-9.796-5.355-14.262-.725-1.437-2.882-.173-2.159 1.262z"></path><path d="M28.182 42.929c1.415-3.88 3.707-6.982 4.764-11.075 1.13-4.378 1.775-8.81 3.577-12.993.63-1.462-1.524-2.737-2.16-1.262-1.685 3.915-2.5 7.968-3.471 12.098-1.086 4.62-3.541 8.236-5.12 12.567-.553 1.514 1.862 2.166 2.41.665z"></path></svg>