<svg xmlns="http://www.w3.org/2000/svg" viewBox="0 0 52 52" id="repair-tool"><path d="M12.818 28.598c.747-.552 1.106-1.729 1.7-2.143-.05-1.014.17-1.187.663-.52.574.413.963.977 1.167 1.689.424.494.842 1.04 1.418 1.362.834.466 1.741.498 2.637.449.635-.036 2.008-1.18 2.77-.278.44.52-.346 3.425-.155 4.243.176.752.428 1.466 1.016 1.988 1.257 1.116 3.326-.004 2 2.18-.708 1.166-2.12 1.138-2.71 2.767-.598 1.65-.154 3.825-.041 5.507l1.88-1.079c-3.015-1.318-6.245-2.12-8.348 1.072-.496.753-.606 1.952-1.01 1.836.12.035-1.396-2.194-1.61-2.379-1.667-1.432-2.888-.672-4.704-1.222-1.98-.6-1.054 2.26-1.851-1.555-.255-1.216-.165-1.8-.738-2.758-.467-.781-.914-1.095-1.65-1.72-1.262-1.073-1.846-.444-1.19-1.415.758-1.125 2.438-.848 3.13-2.516.829-2-.333-4.448-.315-6.476l-1.25 1.25 5.493.129c1.609.037 1.608-2.463 0-2.5l-5.493-.13c-.68-.015-1.244.586-1.25 1.25-.008.87.206 2.01.111 2.88.53 1.019.293 1.872-.71 2.558-.246.871-.76 1.375-1.541 1.511-.445.522-.907.61-1.187 1.411-.35 1 .19 1.978.55 2.84.085.064.169.13.253.195 1.216.499 1.9 1.492 2.052 2.978-.877-1.801 1.803 4.341 1.568 4.052.551.678 1.158.98 1.915 1.35l.332-.044c2.075-1.078 4.088-.44 6.04 1.912.227.132.196.618.556.734 4.015 1.294 4.629-5.25 9.586-3.084.79.345 1.95-.035 1.88-1.08-.135-2.04-.523-3.298.649-4.99.836-1.208 1.982-1.423 2.834-2.533.667-.87 1.053-2.02.545-3.077-.564-1.171-1.652-1.004-2.577-1.527-3.435-1.944-.063-4.532-1.67-7.1-.428-.684-.757-.85-1.567-1.047-1.931-.47-1.57.736-2.878.714-1.094.902-2.204.497-3.327-1.213a4.345 4.345 0 0 0-.84-1.592c-1.01-.67-1.316-1.506-2.774-1.012-1.906.646-1.266 2.975-2.62 3.974-1.282.945-.036 3.115 1.26 2.159z"></path><path d="M11.37 28.982c1.609 0 1.612-2.5 0-2.5-1.608 0-1.61 2.5 0 2.5zM12.227 37.231c-.027-.596-.11-1.688.325-2.17.585-.649 2.032-.642 2.837-.567 1.616.152 2.344 1.1 2.417 2.688.041.891-.007 1.541-.871 1.941-.472.219-1.202.164-1.7.188-.957.046-1.434.169-1.937-.648-.313-.507-.443-1.283-.638-1.848-.522-1.512-2.938-.862-2.411.664.416 1.206.705 2.79 1.705 3.666 1.103.967 2.83.732 4.18.6 1.24-.12 2.558-.337 3.402-1.353.878-1.057.855-2.621.725-3.914-.297-2.934-2.626-4.562-5.493-4.49-1.285.031-3.01.176-3.935 1.185-.957 1.044-1.167 2.71-1.106 4.058.074 1.602 2.574 1.611 2.5 0zM40.035 14.53l.657-1.005c.37-.566.114-1.382-.449-1.71-.608-.356-1.34-.119-1.71.448l-.657 1.006c-.37.566-.114 1.382.449 1.71.608.356 1.34.119 1.71-.448z"></path><path d="M40.397 13.615a38.82 38.82 0 0 1 3.273-2.05c1.404-.785.145-2.945-1.262-2.159a38.82 38.82 0 0 0-3.273 2.05c-.553.386-.808 1.095-.448 1.71.32.548 1.154.837 1.71.45z"></path><path d="M43.62 11.482c1.609 0 1.612-2.5 0-2.5-1.608 0-1.61 2.5 0 2.5z"></path><path d="M44.313 11.2c2.124-.99 1.309-3.227 1.215-5.144-.108-2.22.17-2.35 1.388-.367.598.974.96 2.2 1.228 3.308.785 3.233.426 7.015-1.604 9.707-3.796 5.037-11.184 5.591-15.37.763-2.277-2.628-3.067-5.3-3.064-8.715.002-3.842 1.233-5.732 4.422-7.874l-1.88-1.08c-.105 2.954-1.604 4.725-.052 7.496 1.369 2.444 3.771 4.177 6.238 5.354 1.445.69 2.715-1.465 1.262-2.158-1.978-.944-4.426-2.337-5.342-4.458-.793-1.84.325-4.287.393-6.233.032-.914-1.099-1.605-1.88-1.08-5.967 4.008-7.822 11.295-3.953 17.74 1.657 2.76 4.782 6.591 8.155 7.241 3.184.614 7.658-.98 10.275-2.718 6.009-3.991 6.818-13.308 2.978-19.082-.849-1.276-2.84-3.819-4.662-2.803-2.364 1.317.36 7.306-1.009 7.944-1.457.679-.189 2.835 1.262 2.159z"></path><path d="M41.342 24.53c.708 3.642-.492 7.443-.467 11.146.022 3.115 1.833 12.005-2.38 12.837-6.806 1.345-4.262-10.366-3.931-12.682.541-3.798.769-7.603.8-11.437.014-1.61-2.486-1.61-2.5 0-.037 4.562-.394 9.018-1.154 13.522-.42 2.486-.789 4.673-.178 7.151.985 3.993 3.902 7.232 8.549 6.203 3.674-.814 3.492-5.661 3.527-8.8.039-3.39-.475-6.79-.142-10.177.299-3.04.882-5.364.287-8.428-.306-1.578-2.716-.91-2.41.664z"></path></svg>