<svg xmlns="http://www.w3.org/2000/svg" viewBox="0 0 52 52" id="robot"><path d="M24 5a2 2 0 1 1 4 0 2 2 0 1 1-4 0z"/><path d="M25 7h2v5h-2z"/><path d="M8 18h3.5v5H8z"/><path d="M40.5 18h3.5v5h-3.5z"/><path fill-rule="evenodd" d="M11.5 12h29v16h-29zm2.5 2.5v11h24v-11z"/><path d="M17.2 19.5a2.8 2.8 0 1 1 5.6 0 2.8 2.8 0 1 1-5.6 0z"/><path d="M29.2 19.5a2.8 2.8 0 1 1 5.6 0 2.8 2.8 0 1 1-5.6 0z"/><path d="M18.5 24h15v2.5h-15z"/><path d="M23 28h6v4h-6z"/><path fill-rule="evenodd" d="M14 32h24v14H14zm2.5 2.5v9h19v-9z"/><path d="M6.5 34h7.5v3H9v4.5H6.5z"/><path d="M38 34h7.5v7.5H43V37h-5z"/><path d="M19 46h5v4h-5z"/><path d="M28 46h5v4h-5z"/><path d="M20.5 39.5a1.5 1.5 0 1 1 3 0 1.5 1.5 0 1 1-3 0z"/><path d="M24.5 39.5a1.5 1.5 0 1 1 3 0 1.5 1.5 0 1 1-3 0z"/><path d="M28.5 39.5a1.5 1.5 0 1 1 3 0 1.5 1.5 0 1 1-3 0z"/></svg>